<svg xmlns="http://www.w3.org/2000/svg" width="1157.877" height="37" viewBox="0 0 1157.877 37"><defs><style>.a{fill:#31569c;}.b{fill:#d8e4fb;}.c,.d{stroke:none;}.d{fill:#fff;}</style></defs><g transform="translate(-375.013 -253)"><g class="a" transform="translate(-3198 -2316)"><path class="c" d="M 4729.7978515625 2605.000244140625 L 4413.99951171875 2605.000244140625 L 4413.99951171875 2570.00048828125 L 4690.99951171875 2570.00048828125 C 4700.90771484375 2570.00048828125 4710.3525390625 2573.719482421875 4717.59326171875 2580.472412109375 C 4724.53466796875 2586.945556640625 4728.8427734375 2595.620361328125 4729.7978515625 2605.000244140625 Z"/><path class="d" d="M 4728.6748046875 2604.000244140625 C 4727.52978515625 2595.28515625 4723.40234375 2587.2568359375 4716.9111328125 2581.203857421875 C 4709.85595703125 2574.6240234375 4700.65380859375 2571.00048828125 4690.99951171875 2571.00048828125 L 4414.99951171875 2571.00048828125 L 4414.99951171875 2604.000244140625 L 4728.6748046875 2604.000244140625 M 4730.8896484375 2606.000244140625 L 4412.99951171875 2606.000244140625 L 4412.99951171875 2569.00048828125 L 4690.99951171875 2569.00048828125 C 4701.16162109375 2569.00048828125 4710.8486328125 2572.81494140625 4718.275390625 2579.7412109375 C 4725.6650390625 2586.63232421875 4730.14501953125 2595.95751953125 4730.8896484375 2605.999267578125 L 4730.8896484375 2606.000244140625 Z"/></g><g class="b" transform="translate(-3468 -2316)"><path class="c" d="M 4739.79736328125 2605.000244140625 L 4404 2605.000244140625 L 4404 2570.00048828125 L 4701.00048828125 2570.00048828125 C 4710.908203125 2570.00048828125 4720.3525390625 2573.719482421875 4727.59326171875 2580.472412109375 C 4734.5341796875 2586.9453125 4738.84228515625 2595.6201171875 4739.79736328125 2605.000244140625 Z"/><path class="d" d="M 4738.67431640625 2604.000244140625 C 4737.529296875 2595.284912109375 4733.40185546875 2587.256591796875 4726.9111328125 2581.203857421875 C 4719.85595703125 2574.6240234375 4710.654296875 2571.00048828125 4701.00048828125 2571.00048828125 L 4405 2571.00048828125 L 4405 2604.000244140625 L 4738.67431640625 2604.000244140625 M 4740.88916015625 2606.000244140625 L 4403 2606.000244140625 L 4403 2569.00048828125 L 4701.00048828125 2569.00048828125 C 4711.162109375 2569.00048828125 4720.8486328125 2572.81494140625 4728.275390625 2579.7412109375 C 4735.6650390625 2586.63232421875 4740.14453125 2595.957763671875 4740.88916015625 2605.999267578125 L 4740.88916015625 2606.000244140625 Z"/></g><g class="a" transform="translate(-3758 -2316)"><path class="c" d="M 4729.7978515625 2605.000244140625 L 4413.99951171875 2605.000244140625 L 4413.99951171875 2570.00048828125 L 4690.99951171875 2570.00048828125 C 4700.90771484375 2570.00048828125 4710.3525390625 2573.719482421875 4717.59326171875 2580.472412109375 C 4724.53466796875 2586.945556640625 4728.8427734375 2595.620361328125 4729.7978515625 2605.000244140625 Z"/><path class="d" d="M 4728.6748046875 2604.000244140625 C 4727.52978515625 2595.28515625 4723.40234375 2587.2568359375 4716.9111328125 2581.203857421875 C 4709.85595703125 2574.6240234375 4700.65380859375 2571.00048828125 4690.99951171875 2571.00048828125 L 4414.99951171875 2571.00048828125 L 4414.99951171875 2604.000244140625 L 4728.6748046875 2604.000244140625 M 4730.8896484375 2606.000244140625 L 4412.99951171875 2606.000244140625 L 4412.99951171875 2569.00048828125 L 4690.99951171875 2569.00048828125 C 4701.16162109375 2569.00048828125 4710.8486328125 2572.81494140625 4718.275390625 2579.7412109375 C 4725.6650390625 2586.63232421875 4730.14501953125 2595.95751953125 4730.8896484375 2605.999267578125 L 4730.8896484375 2606.000244140625 Z"/></g><g class="b" transform="translate(-4038 -2316)"><path class="c" d="M 4729.94775390625 2605.000244140625 L 4414.052734375 2605.000244140625 C 4414.29296875 2600.475341796875 4415.34375 2596.09521484375 4417.18115234375 2591.966796875 C 4419.09423828125 2587.67041015625 4421.7783203125 2583.81884765625 4425.1591796875 2580.51904296875 C 4432.10888671875 2573.736083984375 4441.2861328125 2570.00048828125 4451 2570.00048828125 L 4693 2570.00048828125 C 4702.71435546875 2570.00048828125 4711.8916015625 2573.736083984375 4718.84130859375 2580.51904296875 C 4722.22216796875 2583.81884765625 4724.90625 2587.67041015625 4726.8193359375 2591.966796875 C 4728.6572265625 2596.09521484375 4729.7080078125 2600.47509765625 4729.94775390625 2605.000244140625 Z"/><path class="d" d="M 4728.8779296875 2604.000244140625 C 4728.54736328125 2599.970703125 4727.55078125 2596.068603515625 4725.90576171875 2592.37353515625 C 4724.04443359375 2588.193359375 4721.4326171875 2584.445556640625 4718.142578125 2581.234619140625 C 4711.380859375 2574.635009765625 4702.45166015625 2571.00048828125 4693 2571.00048828125 L 4451 2571.00048828125 C 4441.548828125 2571.00048828125 4432.61962890625 2574.635009765625 4425.85791015625 2581.23486328125 C 4422.56787109375 2584.445556640625 4419.9560546875 2588.193359375 4418.0947265625 2592.373291015625 C 4416.4501953125 2596.068603515625 4415.453125 2599.970947265625 4415.12255859375 2604.000244140625 L 4728.8779296875 2604.000244140625 M 4730.98779296875 2606.000244140625 L 4413.0126953125 2606.000244140625 C 4413.142578125 2600.977294921875 4414.23828125 2596.119140625 4416.267578125 2591.56005859375 C 4418.232421875 2587.147216796875 4420.9892578125 2583.191650390625 4424.4609375 2579.803466796875 C 4431.5986328125 2572.8369140625 4441.02392578125 2569.00048828125 4451 2569.00048828125 L 4693 2569.00048828125 C 4702.9765625 2569.00048828125 4712.40185546875 2572.8369140625 4719.53955078125 2579.803466796875 C 4723.01123046875 2583.191650390625 4725.76806640625 2587.147216796875 4727.73291015625 2591.56005859375 C 4729.7626953125 2596.119873046875 4730.85791015625 2600.977783203125 4730.98779296875 2605.999267578125 L 4730.98779296875 2606.000244140625 Z"/></g></g></svg>