<svg xmlns="http://www.w3.org/2000/svg" width="100" height="70" viewBox="0 0 100 70"><defs><style>.a{fill:none;}.b{fill:#4a4a4a;}</style></defs><rect class="a" width="100" height="70"/><rect class="a" width="70" height="51" transform="translate(76) rotate(90)"/><rect class="a" width="70" height="51" transform="translate(85.5 60.5) rotate(180)"/><path class="b" d="M3149.967-553.336c-.029,2.278,2.03,3.548,3.581,4.3,1.593.775,2.128,1.273,2.122,1.966-.012,1.061-1.271,1.529-2.449,1.548a8.543,8.543,0,0,1-4.2-1l-.741,3.465a12.319,12.319,0,0,0,4.549.839c4.3,0,7.107-2.121,7.123-5.409.017-4.173-5.772-4.4-5.733-6.27.014-.565.553-1.169,1.736-1.322a7.7,7.7,0,0,1,4.033.707l.719-3.352a10.962,10.962,0,0,0-3.828-.7c-4.044,0-6.888,2.15-6.912,5.227m17.649-4.938a1.865,1.865,0,0,0-1.741,1.16l-6.137,14.654h4.293l.854-2.361h5.247l.5,2.361h3.784l-3.3-15.814h-3.493m.6,4.272,1.239,5.938h-3.393l2.154-5.938m-23.455-4.272-3.384,15.814h4.091l3.383-15.814h-4.09m-6.052,0-4.258,10.764-1.723-9.152a1.907,1.907,0,0,0-1.886-1.611h-6.961l-.1.459a17.032,17.032,0,0,1,4.036,1.345,1.73,1.73,0,0,1,.971,1.389l3.263,12.62h4.324l6.628-15.814h-4.3" transform="translate(-3098.784 585.563)"/></svg>