<svg xmlns="http://www.w3.org/2000/svg" width="18.218" height="13.877" viewBox="0 0 18.218 13.877"><defs><style>.a{fill:#31569c;}</style></defs><g transform="translate(0 -61)"><g transform="translate(0.915 61)"><g transform="translate(0 0)"><path class="a" d="M41.422,61H26.407a1.582,1.582,0,0,0-.686.16l8.158,8.158,1.828-1.757h0l6.4-6.4A1.583,1.583,0,0,0,41.422,61Z" transform="translate(-25.721 -61)"/></g></g><g transform="translate(12.034 61.915)"><g transform="translate(0 0)"><path class="a" d="M344.236,86.728l-6.023,6.023,6.023,6.023a1.582,1.582,0,0,0,.161-.686V87.414A1.582,1.582,0,0,0,344.236,86.728Z" transform="translate(-338.213 -86.728)"/></g></g><g transform="translate(0 61.915)"><g transform="translate(0 0)"><path class="a" d="M.16,86.721a1.583,1.583,0,0,0-.16.686V98.081a1.583,1.583,0,0,0,.16.686l6.023-6.023Z" transform="translate(0 -86.721)"/></g></g><g transform="translate(0.915 68.693)"><g transform="translate(0 0)"><path class="a" d="M36.078,277.211l-1.829,1.757a.533.533,0,0,1-.755,0l-1.758-1.758-6.023,6.023a1.583,1.583,0,0,0,.686.161H41.416a1.582,1.582,0,0,0,.686-.16Z" transform="translate(-25.714 -277.211)"/></g></g></g></svg>