<svg xmlns="http://www.w3.org/2000/svg" width="100" height="70" viewBox="0 0 100 70"><defs><style>.a{fill:none;}.b{fill:#4a4a4a;}.c{fill:#231f20;}.d{fill:#ff5f00;}.e{fill:#eb001b;}.f{fill:#f79e1b;}</style></defs><rect class="a" width="100" height="70"/><rect class="a" width="70" height="51" transform="translate(76) rotate(90)"/><rect class="a" width="70" height="51" transform="translate(85.5 60.5) rotate(180)"/><g transform="translate(25 14.949)"><path class="b" d="M4198.72-130.31v-2.626a1.558,1.558,0,0,0-1.646-1.664,1.618,1.618,0,0,0-1.47.744,1.538,1.538,0,0,0-1.384-.744,1.384,1.384,0,0,0-1.225.622v-.517h-.91v4.185H4193v-2.32a.978.978,0,0,1,1.022-1.112c.605,0,.912.394.912,1.1v2.329h.917v-2.32a.988.988,0,0,1,1.026-1.112c.621,0,.918.394.918,1.1v2.329Zm13.6-4.185h-1.488v-1.269h-.919v1.269h-.849v.832h.849v1.908c0,.972.376,1.55,1.454,1.55a2.14,2.14,0,0,0,1.138-.324l-.264-.779a1.678,1.678,0,0,1-.8.236c-.455,0-.6-.28-.6-.7v-1.891h1.488Zm7.766-.105a1.234,1.234,0,0,0-1.1.613v-.508h-.9v4.185H4219v-2.346c0-.692.3-1.077.893-1.077a1.481,1.481,0,0,1,.569.105l.281-.858a1.944,1.944,0,0,0-.647-.114Zm-11.741.438a3.126,3.126,0,0,0-1.707-.438c-1.059,0-1.742.508-1.742,1.34,0,.683.508,1.1,1.444,1.235l.43.061c.5.07.735.2.735.438,0,.324-.333.508-.955.508a2.233,2.233,0,0,1-1.393-.438l-.428.709a3.021,3.021,0,0,0,1.813.543c1.208,0,1.908-.569,1.908-1.366,0-.735-.553-1.12-1.462-1.252l-.43-.061c-.394-.053-.709-.131-.709-.412,0-.306.3-.49.8-.49a2.7,2.7,0,0,1,1.3.359Zm24.391-.438a1.234,1.234,0,0,0-1.1.613v-.508h-.9v4.185h.91v-2.346c0-.692.3-1.077.893-1.077a1.488,1.488,0,0,1,.569.105l.28-.858a1.948,1.948,0,0,0-.648-.114Zm-11.731,2.2a2.114,2.114,0,0,0,2.232,2.2,2.192,2.192,0,0,0,1.506-.5l-.437-.735a1.844,1.844,0,0,1-1.1.377,1.25,1.25,0,0,1-1.26-1.34,1.25,1.25,0,0,1,1.26-1.339,1.844,1.844,0,0,1,1.1.376l.437-.736a2.192,2.192,0,0,0-1.506-.5,2.114,2.114,0,0,0-2.232,2.2Zm8.527,0v-2.092h-.911v.508a1.587,1.587,0,0,0-1.322-.613,2.1,2.1,0,0,0-2.091,2.2,2.1,2.1,0,0,0,2.091,2.2,1.588,1.588,0,0,0,1.322-.613v.508h.911Zm-3.388,0a1.255,1.255,0,0,1,1.269-1.339,1.254,1.254,0,0,1,1.261,1.339,1.254,1.254,0,0,1-1.261,1.34,1.255,1.255,0,0,1-1.269-1.34Zm-10.987-2.2a2.044,2.044,0,0,0-2.083,2.2,2.064,2.064,0,0,0,2.145,2.2,2.547,2.547,0,0,0,1.717-.587l-.448-.674a1.992,1.992,0,0,1-1.216.438,1.162,1.162,0,0,1-1.252-1.024h3.108c.008-.113.017-.227.017-.35a2.006,2.006,0,0,0-1.987-2.2Zm-.017.814a1.039,1.039,0,0,1,1.059,1.016h-2.17a1.077,1.077,0,0,1,1.111-1.016Zm22.839,1.383v-3.773h-.909v2.188a1.588,1.588,0,0,0-1.322-.613,2.1,2.1,0,0,0-2.092,2.2,2.1,2.1,0,0,0,2.092,2.2,1.588,1.588,0,0,0,1.322-.613v.508h.909Zm-3.386,0a1.254,1.254,0,0,1,1.268-1.339,1.255,1.255,0,0,1,1.262,1.339,1.255,1.255,0,0,1-1.262,1.34,1.254,1.254,0,0,1-1.268-1.34Zm-30.746,0v-2.092h-.911v.508a1.588,1.588,0,0,0-1.323-.613,2.1,2.1,0,0,0-2.091,2.2,2.1,2.1,0,0,0,2.091,2.2,1.588,1.588,0,0,0,1.323-.613v.508h.911Zm-3.387,0a1.254,1.254,0,0,1,1.269-1.339,1.254,1.254,0,0,1,1.259,1.339,1.254,1.254,0,0,1-1.259,1.34A1.255,1.255,0,0,1,4200.463-132.4Zm13.083-8.782c.122.107.253.211.38.316a15.685,15.685,0,0,1-8.725,2.634,15.759,15.759,0,0,1-15.759-15.76,15.759,15.759,0,0,1,15.759-15.76,15.686,15.686,0,0,1,8.725,2.634c-.127.1-.258.207-.38.315a16.973,16.973,0,0,0-5.843,12.811A16.971,16.971,0,0,0,4213.546-141.184Zm11.135-28.57a15.689,15.689,0,0,0-8.725,2.634c.128.105.257.208.381.316a16.977,16.977,0,0,1,5.843,12.81,16.98,16.98,0,0,1-5.842,12.811c-.124.107-.253.211-.382.316a15.689,15.689,0,0,0,8.725,2.634,15.76,15.76,0,0,0,15.761-15.76A15.76,15.76,0,0,0,4224.682-169.755Zm-9.74,3.375c-.2.16-.4.324-.6.493a15.722,15.722,0,0,0-5.423,11.891,15.721,15.721,0,0,0,5.423,11.891c.195.169.395.334.6.494q.305-.24.6-.494a15.721,15.721,0,0,0,5.423-11.891,15.722,15.722,0,0,0-5.423-11.891q-.292-.253-.6-.493" transform="translate(-4189.442 169.755)"/></g><g transform="translate(25 15)"><g transform="translate(2.6 33.566)"><path class="c" d="M2724.371-744.009a1.258,1.258,0,0,1,1.27-1.343,1.257,1.257,0,0,1,1.261,1.343,1.256,1.256,0,0,1-1.261,1.343,1.258,1.258,0,0,1-1.27-1.343m3.389,0v-2.1h-.91v.509a1.588,1.588,0,0,0-1.323-.615,2.1,2.1,0,0,0-2.094,2.2,2.1,2.1,0,0,0,2.094,2.2,1.588,1.588,0,0,0,1.323-.615v.509h.91Zm30.749,0a1.258,1.258,0,0,1,1.269-1.343,1.256,1.256,0,0,1,1.261,1.343,1.256,1.256,0,0,1-1.261,1.343,1.257,1.257,0,0,1-1.269-1.343m3.388,0v-3.781h-.91v2.194a1.585,1.585,0,0,0-1.322-.615,2.1,2.1,0,0,0-2.093,2.2,2.1,2.1,0,0,0,2.093,2.2,1.585,1.585,0,0,0,1.322-.615v.509h.91Zm-22.843-1.386a1.04,1.04,0,0,1,1.059,1.018h-2.171a1.079,1.079,0,0,1,1.112-1.018m.018-.816a2.047,2.047,0,0,0-2.084,2.2,2.066,2.066,0,0,0,2.145,2.2,2.54,2.54,0,0,0,1.716-.588l-.446-.676a2,2,0,0,1-1.217.439,1.164,1.164,0,0,1-1.252-1.028h3.108c.009-.114.018-.228.018-.351a2.01,2.01,0,0,0-1.988-2.2m10.988,2.2a1.258,1.258,0,0,1,1.269-1.343,1.257,1.257,0,0,1,1.261,1.343,1.257,1.257,0,0,1-1.261,1.343,1.257,1.257,0,0,1-1.269-1.343m3.387,0v-2.1h-.909v.509a1.588,1.588,0,0,0-1.322-.615,2.1,2.1,0,0,0-2.094,2.2,2.1,2.1,0,0,0,2.094,2.2,1.588,1.588,0,0,0,1.322-.615v.509h.909Zm-8.527,0a2.116,2.116,0,0,0,2.233,2.2,2.19,2.19,0,0,0,1.505-.5l-.437-.737a1.834,1.834,0,0,1-1.094.378,1.252,1.252,0,0,1-1.262-1.343,1.253,1.253,0,0,1,1.262-1.343,1.836,1.836,0,0,1,1.094.378l.438-.737a2.19,2.19,0,0,0-1.505-.5,2.116,2.116,0,0,0-2.233,2.2m11.732-2.2a1.234,1.234,0,0,0-1.1.615v-.509h-.9v4.194h.911v-2.351c0-.694.3-1.079.894-1.079a1.472,1.472,0,0,1,.569.105l.281-.859a1.933,1.933,0,0,0-.648-.115m-24.393.439a3.125,3.125,0,0,0-1.707-.439c-1.061,0-1.743.509-1.743,1.343,0,.684.507,1.106,1.444,1.237l.43.061c.5.07.734.2.734.439,0,.325-.333.509-.954.509a2.223,2.223,0,0,1-1.392-.439l-.429.71a3.015,3.015,0,0,0,1.811.545c1.208,0,1.91-.571,1.91-1.369,0-.737-.552-1.123-1.463-1.254l-.428-.062c-.395-.052-.71-.131-.71-.412,0-.307.3-.491.8-.491a2.7,2.7,0,0,1,1.3.359Zm11.741-.439a1.231,1.231,0,0,0-1.1.615v-.509h-.9v4.194h.91v-2.351c0-.694.3-1.079.893-1.079a1.472,1.472,0,0,1,.57.105l.281-.859a1.937,1.937,0,0,0-.649-.115m-7.766.105h-1.488v-1.272h-.919v1.272h-.849v.834h.849v1.914c0,.973.376,1.553,1.453,1.553a2.134,2.134,0,0,0,1.139-.324l-.263-.781a1.679,1.679,0,0,1-.805.237c-.455,0-.6-.281-.6-.7v-1.9h1.488Zm-13.606,4.194v-2.632a1.56,1.56,0,0,0-1.647-1.667,1.619,1.619,0,0,0-1.471.746,1.535,1.535,0,0,0-1.383-.746,1.384,1.384,0,0,0-1.226.622v-.517h-.911v4.194h.919v-2.325a.981.981,0,0,1,1.025-1.115c.6,0,.91.4.91,1.106v2.334h.918v-2.325a.99.99,0,0,1,1.025-1.115c.622,0,.919.4.919,1.106v2.334Z" transform="translate(-2715.992 747.79)"/></g><path class="d" d="M2781.93-821.318h-13.823v-24.841h13.823Z" transform="translate(-2749.519 849.539)"/><g transform="translate(0 0)"><path class="e" d="M2727.069-841.342a15.772,15.772,0,0,1,6.033-12.421,15.728,15.728,0,0,0-9.763-3.378,15.8,15.8,0,0,0-15.8,15.8,15.8,15.8,0,0,0,15.8,15.8,15.726,15.726,0,0,0,9.763-3.378,15.771,15.771,0,0,1-6.033-12.42" transform="translate(-2707.543 857.14)"/></g><g transform="translate(25.44 0)"><path class="f" d="M2816.1-841.342a15.8,15.8,0,0,1-15.8,15.8,15.731,15.731,0,0,1-9.764-3.378,15.768,15.768,0,0,0,6.034-12.42,15.769,15.769,0,0,0-6.034-12.421,15.733,15.733,0,0,1,9.764-3.378,15.8,15.8,0,0,1,15.8,15.8" transform="translate(-2790.539 857.14)"/></g></g></svg>