<svg xmlns="http://www.w3.org/2000/svg" width="20.835" height="18.345" viewBox="0 0 20.835 18.345"><defs><style>.a{fill:#31569c;}</style></defs><path class="a" d="M132.1,29.55a3.118,3.118,0,0,1,1.911,2.593,2.91,2.91,0,0,1-1.485,2.953.913.913,0,0,0-.519.936c.021,2.3.016,4.607,0,6.911a.893.893,0,0,0,.4.834,2.244,2.244,0,0,1,.889,2.291,2.388,2.388,0,0,1-1.443,1.826V46.158c-.008-.678-.23-.875-.961-.872-.709,0-.906.191-.915.862,0,.527,0,1.055-.013,1.582,0,.026-.031.051-.048.077a2.294,2.294,0,0,1-1.371-2.678,2.235,2.235,0,0,1,.97-1.433.641.641,0,0,0,.315-.628q-.014-3.647,0-7.3a.558.558,0,0,0-.377-.567,2.944,2.944,0,0,1-1.653-2.724,3,3,0,0,1,1.517-2.715,1.361,1.361,0,0,1,.216-.1.754.754,0,0,1,.173,0v2.269a1.56,1.56,0,0,0,.068.472c.182.471.706.637,1.6.509a.78.78,0,0,0,.722-.861C132.111,31.259,132.1,30.465,132.1,29.55Z" transform="translate(-113.196 -29.55)"/><path class="a" d="M24.81,131.546c.054-.742.077-1.431.164-2.11a1.339,1.339,0,0,1,.913-1.146c1.333-.435,2.684-.818,4.064-1.231l1.8,3.8c.452-.345.862-.666,1.276-.976.74-.543.475-.6,1.253-.007q.567.438,1.147.869a.634.634,0,0,0,.173.048c.425-.907.861-1.813,1.287-2.724.476-1.018.475-1.018,1.534-.7.455.142.912.268,1.391.408a3.27,3.27,0,0,0,.491,3.765Z" transform="translate(-24.81 -113.234)"/><path class="a" d="M60.13,84.149a35.3,35.3,0,0,0,8.082-1.269,9.911,9.911,0,0,1-.5,1.714A17.252,17.252,0,0,1,66.1,87.355a2.561,2.561,0,0,1-4.254-.041,24.593,24.593,0,0,1-1.56-2.677A2.567,2.567,0,0,1,60.13,84.149Z" transform="translate(-55.122 -75.318)"/><path class="a" d="M66.149,50.183H57.741c-.064-2.018,1.995-3.915,4.208-3.913S66.215,48.174,66.149,50.183ZM61.7,48.8a2.788,2.788,0,0,0-.354.593.527.527,0,0,0,.126.437c.055.054.328,0,.4-.089a9.2,9.2,0,0,0,.747-1.112c.142-.261.041-.465-.272-.519-.119-.021-.242-.027-.425-.047a2.369,2.369,0,0,0,.316-.522,1.238,1.238,0,0,0-.051-.464c-.156.027-.381,0-.455.091a8.912,8.912,0,0,0-.747,1.112c-.142.254-.011.425.261.485A4.254,4.254,0,0,0,61.7,48.8Z" transform="translate(-53.071 -43.899)"/><path class="a" d="M57.774,78.944c-.95.181-1.894.413-2.853.53-1.56.193-3.141.315-4.713.459a2.8,2.8,0,0,1-.621-.014c-.284-.038-.649-.011-.709-.418-.037-.267.459-.717.787-.717q4.045-.009,8.092,0Z" transform="translate(-45.464 -71.8)"/><path class="a" d="M65.931,125c.179.031.425,0,.525.1.651.654,1.276,1.337,1.941,2.055l-1.161.9-1.375-2.907Z" transform="translate(-60.04 -111.466)"/><path class="a" d="M91.946,128.123l-1.166-.9c.679-.722,1.313-1.418,1.977-2.08.094-.094.329-.044.622-.072Z" transform="translate(-81.426 -111.526)"/><path class="a" d="M76.422,125.523,74.63,123.61a3.267,3.267,0,0,0,3.389.031l.057.113Z" transform="translate(-67.566 -110.273)"/></svg>