<svg xmlns="http://www.w3.org/2000/svg" width="100" height="70" viewBox="0 0 100 70"><defs><style>.a{fill:none;}.b{fill:#4a4a4a;}</style></defs><rect class="a" width="100" height="70"/><g transform="translate(-278.466 -439.641)"><path class="b" d="M375.108,481.326h-2.036a.588.588,0,0,0-.487.258l-2.811,4.138-1.191-3.977a.589.589,0,0,0-.564-.42h-2a.352.352,0,0,0-.334.467l2.243,6.584-2.11,2.976a.353.353,0,0,0,.288.559h2.035a.589.589,0,0,0,.483-.253l6.774-9.778a.352.352,0,0,0-.29-.554m-13.619,3.945a2.259,2.259,0,0,1-2.287,1.936,1.57,1.57,0,0,1-1.678-1.971,2.267,2.267,0,0,1,2.271-1.951,1.708,1.708,0,0,1,1.351.552,1.744,1.744,0,0,1,.344,1.434m2.825-3.945h-2.025a.353.353,0,0,0-.349.3l-.089.566-.142-.2a2.886,2.886,0,0,0-2.394-.851,4.661,4.661,0,0,0-4.523,4.077,3.827,3.827,0,0,0,.754,3.114,3.169,3.169,0,0,0,2.552,1.03A3.878,3.878,0,0,0,360.9,488.2l-.09.564a.352.352,0,0,0,.293.4.357.357,0,0,0,.055,0h1.826a.588.588,0,0,0,.581-.5l1.1-6.938a.354.354,0,0,0-.3-.4.369.369,0,0,0-.053,0m-12.162.049c-.231,1.519-1.392,1.519-2.514,1.519H349l.448-2.836a.352.352,0,0,1,.348-.3h.293c.764,0,1.485,0,1.858.435a1.412,1.412,0,0,1,.2,1.181m-.488-3.964h-4.233a.588.588,0,0,0-.581.5l-1.711,10.853a.353.353,0,0,0,.294.4.348.348,0,0,0,.055,0h2.021a.589.589,0,0,0,.581-.5l.462-2.928a.588.588,0,0,1,.58-.5h1.339c2.789,0,4.4-1.349,4.817-4.023a3.258,3.258,0,0,0-.54-2.732,3.925,3.925,0,0,0-3.085-1.081" transform="translate(-43.669 -9.771)"/><path class="b" d="M450.509,477.708l-1.74,11.051a.353.353,0,0,0,.349.408h1.747a.588.588,0,0,0,.58-.5l1.713-10.853a.352.352,0,0,0-.293-.4.363.363,0,0,0-.056,0h-1.948a.351.351,0,0,0-.348.3m-5.214,7.562a2.26,2.26,0,0,1-2.287,1.936,1.569,1.569,0,0,1-1.678-1.971,2.267,2.267,0,0,1,2.271-1.951,1.708,1.708,0,0,1,1.351.553,1.746,1.746,0,0,1,.344,1.434m2.825-3.945H446.1a.353.353,0,0,0-.349.3l-.09.566-.142-.2a2.885,2.885,0,0,0-2.394-.851,4.661,4.661,0,0,0-4.524,4.077,3.83,3.83,0,0,0,.755,3.114,3.168,3.168,0,0,0,2.552,1.03,3.881,3.881,0,0,0,2.806-1.16l-.091.564a.352.352,0,0,0,.293.4.358.358,0,0,0,.055,0H446.8a.588.588,0,0,0,.581-.5l1.1-6.938a.353.353,0,0,0-.3-.4.326.326,0,0,0-.053,0m-12.162.049c-.231,1.519-1.392,1.519-2.514,1.519h-.638l.447-2.836a.353.353,0,0,1,.349-.3h.293c.764,0,1.485,0,1.858.435a1.415,1.415,0,0,1,.2,1.181m-.488-3.964H431.24a.588.588,0,0,0-.581.5l-1.712,10.853a.352.352,0,0,0,.294.4.348.348,0,0,0,.054,0h2.172a.411.411,0,0,0,.407-.347l.486-3.077a.588.588,0,0,1,.58-.5h1.339c2.788,0,4.4-1.349,4.817-4.023a3.258,3.258,0,0,0-.54-2.731,3.925,3.925,0,0,0-3.085-1.081" transform="translate(-97.288 -9.769)"/></g></svg>