<svg xmlns="http://www.w3.org/2000/svg" width="18.873" height="18.873" viewBox="0 0 18.873 18.873"><defs><style>.a{fill:#31569c;}</style></defs><path class="a" d="M17.359,12.388a10.715,10.715,0,0,1-3.365-.536,1.538,1.538,0,0,0-1.5.315l-2.122,1.6A11.727,11.727,0,0,1,5.1,8.5L6.658,6.431a1.525,1.525,0,0,0,.375-1.546,10.732,10.732,0,0,1-.538-3.371A1.516,1.516,0,0,0,4.98,0H1.514A1.516,1.516,0,0,0,0,1.514,17.378,17.378,0,0,0,17.359,18.873a1.516,1.516,0,0,0,1.514-1.514V13.9A1.516,1.516,0,0,0,17.359,12.388Z"/></svg>